<svg xmlns="http://www.w3.org/2000/svg" xmlns:xlink="http://www.w3.org/1999/xlink" width="90.87" height="35.16"><path fill="#000000" d="M4.44 17.37C4.44 13.59 6.33 12.12 8.76 12.03L8.76 22.65C6.33 22.56 4.44 21.06 4.44 17.37ZM16.74 17.37C16.74 21.06 14.85 22.53 12.39 22.65L12.39 12.03C14.88 12.12 16.74 13.59 16.74 17.37ZM8.76 6.69L8.76 9.21C4.26 9.39 0.75 12.12 0.75 17.37C0.75 22.59 4.26 25.32 8.76 25.47L8.76 28.14L12.39 28.14L12.39 25.47C16.92 25.29 20.43 22.59 20.43 17.37C20.43 12.12 16.92 9.42 12.39 9.21L12.39 6.69ZM29.04 12.45C25.11 12.45 22.38 15.24 22.38 20.31C22.38 25.35 25.11 28.14 29.04 28.14C32.97 28.14 35.70 25.35 35.70 20.28C35.70 15.24 32.97 12.45 29.04 12.45ZM29.04 25.32C27.06 25.32 26.07 23.79 26.07 20.31C26.07 16.80 27.06 15.27 29.04 15.27C31.02 15.27 32.01 16.80 32.01 20.28C32.01 23.79 31.02 25.32 29.04 25.32ZM41.40 12.75L38.10 12.75L38.10 32.19L41.67 32.19L41.67 26.07C42.57 27.42 43.89 28.14 45.42 28.14C48.90 28.14 51.30 25.35 51.30 20.28C51.30 15.24 48.96 12.45 45.60 12.45C43.92 12.45 42.54 13.23 41.58 14.70ZM44.52 25.32C42.63 25.32 41.67 23.79 41.67 20.31C41.67 16.80 42.69 15.27 44.70 15.27C46.65 15.27 47.61 16.80 47.61 20.28C47.61 23.79 46.59 25.32 44.52 25.32ZM66.57 27.84L70.05 27.84L69.99 12.75L65.10 12.75L61.83 22.80L58.89 12.75L53.70 12.75L53.70 27.84L56.73 27.84L56.73 16.56L60 27.84L62.91 27.84L66.57 16.56ZM73.05 12.75L73.05 27.84L78.48 27.84C81.99 27.84 84.48 26.04 84.48 22.50C84.48 19.14 82.26 17.37 78.54 17.37L76.62 17.37L76.62 12.75ZM85.80 12.75L85.80 27.84L89.37 27.84L89.37 12.75ZM78.27 25.02L76.62 25.02L76.62 20.19L78.36 20.19C79.89 20.19 80.79 20.88 80.79 22.62C80.79 24.36 79.80 25.02 78.27 25.02Z"/></svg>