<?xml version="1.0"?>
<!-- Created by MetaPost 2.10 on 2024.04.19:1933 -->
<svg version="1.1" xmlns="http://www.w3.org/2000/svg" xmlns:xlink="http://www.w3.org/1999/xlink" width="158.761230" height="145.109039" viewBox="0 0 158.761230 145.109039">
<!-- Original BoundingBox: -14.303299 -20.748947 144.457932 124.360092 -->
  <defs>
    <g transform="scale(0.011955,0.011955)" id="GLYPHcmmi12_65">
      <path style="fill-rule: evenodd;" d="M170.000000 -111.000000C135.000000 -52.000000,101.000000 -32.000000,53.000000 -29.000000C42.000000 -28.000000,34.000000 -28.000000,34.000000 -10.000000C34.000000 -4.000000,39.000000 -0.000000,46.000000 -0.000000C64.000000 -0.000000,109.000000 -2.000000,127.000000 -2.000000C156.000000 -2.000000,188.000000 -0.000000,216.000000 -0.000000C222.000000 -0.000000,234.000000 -0.000000,234.000000 -19.000000C234.000000 -28.000000,226.000000 -29.000000,220.000000 -29.000000C197.000000 -31.000000,178.000000 -39.000000,178.000000 -63.000000C178.000000 -77.000000,184.000000 -88.000000,197.000000 -110.000000L273.000000 -236.000000L528.000000 -236.000000C529.000000 -227.000000,529.000000 -219.000000,530.000000 -210.000000C533.000000 -184.000000,545.000000 -80.000000,545.000000 -61.000000C545.000000 -31.000000,494.000000 -29.000000,478.000000 -29.000000C467.000000 -29.000000,456.000000 -29.000000,456.000000 -11.000000C456.000000 -0.000000,465.000000 -0.000000,471.000000 -0.000000C488.000000 -0.000000,508.000000 -2.000000,525.000000 -2.000000L582.000000 -2.000000C643.000000 -2.000000,687.000000 -0.000000,688.000000 -0.000000C695.000000 -0.000000,706.000000 -0.000000,706.000000 -19.000000C706.000000 -29.000000,697.000000 -29.000000,682.000000 -29.000000C627.000000 -29.000000,626.000000 -38.000000,623.000000 -68.000000L562.000000 -692.000000C560.000000 -712.000000,556.000000 -714.000000,545.000000 -714.000000C535.000000 -714.000000,529.000000 -712.000000,520.000000 -697.000000M290.000000 -265.000000L491.000000 -601.000000L525.000000 -265.000000"></path>
    </g>
    <g transform="scale(0.011955,0.011955)" id="GLYPHcmmi12_66">
      <path style="fill-rule: evenodd;" d="M366.000000 -615.000000C375.000000 -652.000000,379.000000 -654.000000,418.000000 -654.000000L548.000000 -654.000000C661.000000 -654.000000,661.000000 -558.000000,661.000000 -549.000000C661.000000 -468.000000,580.000000 -365.000000,448.000000 -365.000000L304.000000 -365.000000M535.000000 -357.000000C644.000000 -377.000000,743.000000 -453.000000,743.000000 -545.000000C743.000000 -623.000000,674.000000 -683.000000,561.000000 -683.000000L240.000000 -683.000000C221.000000 -683.000000,212.000000 -683.000000,212.000000 -664.000000C212.000000 -654.000000,221.000000 -654.000000,236.000000 -654.000000C297.000000 -654.000000,297.000000 -646.000000,297.000000 -635.000000C297.000000 -633.000000,297.000000 -627.000000,293.000000 -612.000000L158.000000 -74.000000C149.000000 -39.000000,147.000000 -29.000000,77.000000 -29.000000C58.000000 -29.000000,48.000000 -29.000000,48.000000 -11.000000C48.000000 -0.000000,54.000000 -0.000000,74.000000 -0.000000L417.000000 -0.000000C570.000000 -0.000000,688.000000 -116.000000,688.000000 -217.000000C688.000000 -299.000000,616.000000 -349.000000,535.000000 -357.000000M393.000000 -29.000000L258.000000 -29.000000C244.000000 -29.000000,242.000000 -29.000000,236.000000 -30.000000C225.000000 -31.000000,224.000000 -33.000000,224.000000 -41.000000C224.000000 -48.000000,226.000000 -54.000000,228.000000 -63.000000L298.000000 -345.000000L486.000000 -345.000000C604.000000 -345.000000,604.000000 -235.000000,604.000000 -227.000000C604.000000 -131.000000,517.000000 -29.000000,393.000000 -29.000000"></path>
    </g>
    <g transform="scale(0.011955,0.011955)" id="GLYPHcmmi12_67">
      <path style="fill-rule: evenodd;" d="M747.000000 -695.000000C747.000000 -704.000000,740.000000 -704.000000,738.000000 -704.000000C736.000000 -704.000000,732.000000 -704.000000,724.000000 -694.000000L655.000000 -610.000000C620.000000 -670.000000,565.000000 -704.000000,490.000000 -704.000000C274.000000 -704.000000,50.000000 -485.000000,50.000000 -250.000000C50.000000 -83.000000,167.000000 21.000000,313.000000 21.000000C393.000000 21.000000,463.000000 -13.000000,521.000000 -62.000000C608.000000 -135.000000,634.000000 -232.000000,634.000000 -240.000000C634.000000 -249.000000,626.000000 -249.000000,623.000000 -249.000000C614.000000 -249.000000,613.000000 -243.000000,611.000000 -239.000000C565.000000 -83.000000,430.000000 -8.000000,330.000000 -8.000000C224.000000 -8.000000,132.000000 -76.000000,132.000000 -218.000000C132.000000 -250.000000,142.000000 -424.000000,255.000000 -555.000000C310.000000 -619.000000,404.000000 -675.000000,499.000000 -675.000000C609.000000 -675.000000,658.000000 -584.000000,658.000000 -482.000000C658.000000 -456.000000,655.000000 -434.000000,655.000000 -430.000000C655.000000 -421.000000,665.000000 -421.000000,668.000000 -421.000000C679.000000 -421.000000,680.000000 -422.000000,684.000000 -440.000000"></path>
    </g>
  </defs>
  <path d="M0.000000 145.109039L158.761230 145.109039L158.761230 -0.000000L0.000000 -0.000000Z" style="fill: rgb(100.000000%,100.000000%,100.000000%);stroke: none;"></path>
  <path d="M94.004227 124.360092L127.877060 20.748947L14.303299 124.360092L153.779922 124.360092" style="stroke:rgb(0.000000%,0.000000%,0.000000%); stroke-width: 1.992523;stroke-linecap: round;stroke-linejoin: round;stroke-miterlimit: 10.000000;fill: none;"></path>
  <g transform="matrix(1.440002,-0.000000,-0.000000,1.440002,3.985046 141.123993)" style="fill: rgb(0.000000%,0.000000%,0.000000%);">
    <use xlink:href="#GLYPHcmmi12_65"></use>
  </g>
  <g transform="matrix(1.440002,-0.000000,-0.000000,1.440002,121.039749 15.748947)" style="fill: rgb(0.000000%,0.000000%,0.000000%);">
    <use xlink:href="#GLYPHcmmi12_66"></use>
  </g>
  <g transform="matrix(1.440002,-0.000000,-0.000000,1.440002,87.356018 141.123993)" style="fill: rgb(0.000000%,0.000000%,0.000000%);">
    <use xlink:href="#GLYPHcmmi12_67"></use>
  </g>
</svg>
